<?xml version="1.0" encoding="utf-8"?>
<!-- Generator: Adobe Illustrator 24.0.1, SVG Export Plug-In . SVG Version: 6.00 Build 0)  -->
<svg version="1.1" id="Layer_1" xmlns="http://www.w3.org/2000/svg" xmlns:xlink="http://www.w3.org/1999/xlink" x="0px" y="0px"
	 viewBox="0 0 964 396" style="enable-background:new 0 0 964 396;" xml:space="preserve">
<style type="text/css">
	.st0{fill:#2581C4;}
	.st1{fill:#333333;}
	.st2{fill:#F6A317;}
</style>
<g>
	<polygon class="st0" points="20.68,388 804.38,388 804.38,324.26 30.8,366.33 	"/>
	<g>
		<path class="st1" d="M143.08,151.24c-0.42-7.07-4.16-12.48-9.57-16.23c-4.99-4.16-11.65-6.24-18.3-6.24
			c-11.65,0-24.96,2.5-24.96,16.64c0,6.24,4.99,9.15,9.57,11.23c13.73,5.82,44.93,7.49,72.39,16.64
			c27.46,8.74,51.59,24.96,51.59,60.32c0,59.91-57.41,76.13-109.83,76.13c-50.76,0-106.5-20.39-107.75-76.13h78.63
			c0.42,7.49,3.74,13.73,9.98,19.14c4.16,3.75,12.06,6.24,22.05,6.24c10.82,0,27.87-4.16,27.87-16.64s-7.07-16.23-45.35-22.88
			c-62.82-10.82-88.2-30.79-88.2-67.81c0-54.5,58.66-68.64,101.93-68.64c46.59,0,102.76,12.9,104.84,68.23H143.08z"/>
		<path class="st0" d="M447.5,88.42h79.46v28.71h0.83c16.64-24.96,40.77-34.11,70.72-34.11c23.3,0,48.26,12.06,58.24,33.7
			c3.33-2.49,19.97-33.7,73.63-33.7c55.33,0,74.05,38.27,74.05,73.22v148.1h-82.37v-116.9c0-20.39-2.08-38.69-27.04-38.69
			c-20.8,0-27.87,16.23-27.87,38.69v116.9h-82.37v-116.9c0-20.39-2.08-38.69-27.04-38.69c-20.8,0-27.87,16.23-27.87,38.69v116.9
			H447.5V88.42z"/>
		<path class="st0" d="M951.79,388H813.67v-63.65h64.07V77.65h-64.07V14h138.12V388z"/>
		<path class="st2" d="M368.17,282.28c-6.66,19.14-14.14,43.68-27.04,59.9c-21.63,27.04-54.91,26.63-86.95,26.63h-37.44v-65.73
			h19.14c8.32,0,19.14,0.83,24.96-2.08c4.99-2.5,7.9-6.66,7.9-16.23c0-10.4-31.62-89.86-36.19-102.34l-36.61-99.43h88.2
			l34.53,123.97h0.83l34.95-123.97h85.28L368.17,282.28z"/>
	</g>
</g>
</svg>
